<svg width="150" height="196" viewBox="0 0 150 196" fill="none" xmlns="http://www.w3.org/2000/svg">
<rect x="50" y="50" width="100" height="50" rx="12" fill="#D4F2FF"/>
<path d="M50 62C50 55.3726 55.3726 50 62 50H88C94.6274 50 100 55.3726 100 62V138C100 144.627 94.6274 150 88 150H62C55.3726 150 50 144.627 50 138V62Z" fill="#D4F2FF"/>
<g filter="url(#filter0_d_4_125)">
<rect y="50" width="100" height="50" rx="12" fill="url(#paint0_linear_4_125)"/>
<rect x="50" width="50" height="100" rx="12" fill="url(#paint1_linear_4_125)"/>
</g>
<path d="M3.0975 187V156.088H12.1215V167.608H22.7775V156.088H31.8015V187H22.7775V175.48H12.1215V187H3.0975ZM48.6724 187.48C46.0164 187.48 43.6644 187.048 41.6164 186.184C39.6004 185.288 38.0164 183.96 36.8644 182.2C35.7444 180.44 35.1844 178.264 35.1844 175.672C35.1844 172.056 36.2084 169.176 38.2564 167.032C40.3044 164.856 43.3604 163.768 47.4244 163.768C51.1364 163.768 54.0324 164.712 56.1124 166.6C58.2244 168.488 59.2804 171.064 59.2804 174.328V178.312H43.4884C43.9044 179.528 44.7204 180.392 45.9364 180.904C47.1524 181.416 48.8004 181.672 50.8804 181.672C52.1924 181.672 53.5044 181.56 54.8164 181.336C56.1604 181.08 57.2324 180.792 58.0324 180.472V185.896C55.7924 186.952 52.6724 187.48 48.6724 187.48ZM43.4884 173.416H51.5044V172.6C51.5044 171.704 51.2164 170.968 50.6404 170.392C50.0964 169.816 49.1204 169.528 47.7124 169.528C46.1444 169.528 45.0404 169.864 44.4004 170.536C43.7924 171.176 43.4884 172.136 43.4884 173.416ZM69.7328 187.48C68.2928 187.48 66.9488 187.224 65.7008 186.712C64.4848 186.2 63.5088 185.4 62.7728 184.312C62.0368 183.224 61.6688 181.848 61.6688 180.184C61.6688 177.784 62.4688 175.928 64.0688 174.616C65.6688 173.272 68.0848 172.6 71.3168 172.6H77.2208V172.168C77.2208 171.272 76.8528 170.616 76.1168 170.2C75.3808 169.784 74.0848 169.576 72.2288 169.576C69.6048 169.576 67.0128 169.976 64.4528 170.776V165.352C65.6048 164.904 67.0448 164.536 68.7728 164.248C70.5008 163.928 72.2608 163.768 74.0528 163.768C77.6688 163.768 80.5328 164.504 82.6448 165.976C84.7568 167.448 85.8127 169.784 85.8127 172.984V187H77.9408L77.5088 185.176C76.7088 185.88 75.6688 186.44 74.3888 186.856C73.1408 187.272 71.5888 187.48 69.7328 187.48ZM72.8047 182.2C73.8288 182.2 74.6928 182.024 75.3968 181.672C76.1328 181.32 76.7408 180.888 77.2208 180.376V177.544H72.8528C70.8688 177.544 69.8768 178.328 69.8768 179.896C69.8768 181.432 70.8528 182.2 72.8047 182.2ZM97.638 187.48C94.854 187.48 92.87 186.888 91.686 185.704C90.502 184.52 89.91 182.664 89.91 180.136V154.648H98.934V179.128C98.934 179.832 99.078 180.312 99.366 180.568C99.654 180.792 100.102 180.904 100.71 180.904C101.126 180.904 101.526 180.872 101.91 180.808C102.326 180.744 102.71 180.648 103.062 180.52V186.52C102.23 186.84 101.414 187.08 100.614 187.24C99.846 187.4 98.854 187.48 97.638 187.48ZM113.763 187.48C110.723 187.48 108.515 186.712 107.139 185.176C105.763 183.64 105.075 181.56 105.075 178.936V170.92H102.099V164.248H105.075V159.592L114.099 157.432V164.248H119.331L118.995 170.92H114.099V178.264C114.099 179.224 114.339 179.912 114.819 180.328C115.299 180.712 116.035 180.904 117.027 180.904C117.955 180.904 118.899 180.744 119.859 180.424V186.424C118.163 187.128 116.131 187.48 113.763 187.48ZM122.254 187V154.648H131.278V165.64C132.078 165.096 133.07 164.648 134.254 164.296C135.47 163.944 136.766 163.768 138.142 163.768C141.278 163.768 143.566 164.504 145.006 165.976C146.446 167.416 147.166 169.656 147.166 172.696V187H138.094V173.368C138.094 172.312 137.87 171.56 137.422 171.112C137.006 170.664 136.238 170.44 135.118 170.44C134.446 170.44 133.742 170.6 133.006 170.92C132.302 171.24 131.726 171.624 131.278 172.072V187H122.254Z" fill="#1A59C2"/>
<defs>
<filter id="filter0_d_4_125" x="0" y="0" width="102" height="102" filterUnits="userSpaceOnUse" color-interpolation-filters="sRGB">
<feFlood flood-opacity="0" result="BackgroundImageFix"/>
<feColorMatrix in="SourceAlpha" type="matrix" values="0 0 0 0 0 0 0 0 0 0 0 0 0 0 0 0 0 0 127 0" result="hardAlpha"/>
<feOffset dx="2" dy="2"/>
<feComposite in2="hardAlpha" operator="out"/>
<feColorMatrix type="matrix" values="0 0 0 0 1 0 0 0 0 1 0 0 0 0 1 0 0 0 1 0"/>
<feBlend mode="normal" in2="BackgroundImageFix" result="effect1_dropShadow_4_125"/>
<feBlend mode="normal" in="SourceGraphic" in2="effect1_dropShadow_4_125" result="shape"/>
</filter>
<linearGradient id="paint0_linear_4_125" x1="50" y1="50" x2="50" y2="100" gradientUnits="userSpaceOnUse">
<stop stop-color="#ADF2FF"/>
<stop offset="1" stop-color="#ADF2FF"/>
</linearGradient>
<linearGradient id="paint1_linear_4_125" x1="75" y1="0" x2="75" y2="100" gradientUnits="userSpaceOnUse">
<stop stop-color="#ADF2FF"/>
<stop offset="1" stop-color="#ADF2FF"/>
</linearGradient>
</defs>
</svg>
